<svg xmlns="http://www.w3.org/2000/svg" version="1.1" xmlns:xlink="http://www.w3.org/1999/xlink" width="1000" height="1000"><g clip-path="url(#SvgjsClipPath1201)"><rect width="1000" height="1000" fill="#ffffff"></rect><g transform="matrix(2.9397930385700843,0,0,2.9397930385700843,0,0)"><svg xmlns="http://www.w3.org/2000/svg" id="Слой_1" data-name="Слой 1" viewBox="0 0 340.16 340.16" width="340.16" height="340.16"><defs><style>.cls-1{fill:#fff;}.cls-2{fill:#0d1b35;}</style><clipPath id="SvgjsClipPath1201"><rect width="1000" height="1000" x="0" y="0" rx="500" ry="500"></rect></clipPath></defs><rect class="cls-1" width="340.16" height="340.16"></rect><path class="cls-2" d="M166.13,66c-13.18,7-23.58,15.12-30.9,24.27-7.85,9.8-11.84,20.29-11.84,31.18V218.7c0,10.9,4,21.39,11.84,31.19,7.32,9.14,17.72,17.31,30.9,24.27a180.31,180.31,0,0,0,44.81,16l5.82,1.31v-107l-3.73-.84a174.07,174.07,0,0,1-39.25-13.46A174.07,174.07,0,0,1,213,156.62l3.73-.84v-107L210.94,50a180.72,180.72,0,0,0-44.81,16M133,149.64c.72,1,1.47,2,2.27,3a86.6,86.6,0,0,0,19.43,17.44,86.57,86.57,0,0,0-19.43,17.43c-.8,1-1.55,2-2.27,3ZM207.2,192v87.4a165.18,165.18,0,0,1-36.6-13.7c-12-6.34-21.41-13.67-27.91-21.79S133,227.37,133,218.7s3.27-17.14,9.73-25.21c5.21-6.49,12.26-12.49,21-17.88.79.44,1.59.87,2.4,1.3A176.84,176.84,0,0,0,207.2,192m0-43.85a177.3,177.3,0,0,0-41.07,15.1c-.81.43-1.61.86-2.4,1.3-8.78-5.39-15.83-11.39-21-17.89-6.46-8.06-9.73-16.54-9.73-25.21s3.27-17.14,9.73-25.21S158.58,80.8,170.6,74.46a165.68,165.68,0,0,1,36.6-13.71Z"></path></svg></g></g></svg>