<svg xmlns="http://www.w3.org/2000/svg" version="1.1" xmlns:xlink="http://www.w3.org/1999/xlink" width="1000" height="1000"><g clip-path="url(#SvgjsClipPath1061)"><rect width="1000" height="1000" fill="#ffffff"></rect><g transform="matrix(2.3518344308560675,0,0,2.3518344308560675,99.99999999999997,99.99999999999997)"><svg xmlns="http://www.w3.org/2000/svg" version="1.1" xmlns:xlink="http://www.w3.org/1999/xlink" id="Слой_1" x="0px" y="0px" viewBox="0 0 340.16 340.16" style="enable-background:new 0 0 340.16 340.16;" xml:space="preserve" width="340.16" height="340.16"><style type="text/css">
	.st0{fill:#FFFFFF;}
	.st1{fill:#0D1B35;}
</style><rect class="st0" width="340.16" height="340.16"></rect><path class="st1" d="M165.82,41.91c-15.92,8.4-28.47,18.26-37.32,29.3c-9.48,11.83-14.29,24.5-14.29,37.65v117.41
	c0,13.15,4.81,25.82,14.29,37.65c8.84,11.04,21.4,20.89,37.32,29.3c15.67,8.27,33.87,14.76,54.09,19.27l7.03,1.57V184.83l-4.51-1.01
	c-17.58-3.93-33.5-9.39-47.38-16.25c13.88-6.87,29.8-12.33,47.38-16.25l4.51-1.01V21.07l-7.03,1.57
	C199.69,27.16,181.48,33.64,165.82,41.91 M125.76,142.89c0.87,1.22,1.78,2.43,2.74,3.63c6.1,7.61,13.95,14.65,23.46,21.05
	c-9.51,6.4-17.37,13.44-23.46,21.05c-0.96,1.2-1.87,2.41-2.74,3.63V142.89z M215.4,194.04v105.51
	c-16.41-4.16-31.25-9.71-44.19-16.54c-14.51-7.66-25.85-16.51-33.69-26.31c-7.8-9.73-11.75-19.97-11.75-30.43
	c0-10.46,3.96-20.7,11.75-30.44c6.28-7.84,14.8-15.08,25.41-21.59c0.95,0.53,1.92,1.05,2.9,1.56
	C180.31,183.46,196.97,189.59,215.4,194.04 M215.4,141.1c-18.43,4.45-35.09,10.57-49.58,18.22c-0.98,0.52-1.95,1.04-2.9,1.57
	c-10.6-6.51-19.12-13.75-25.41-21.59c-7.8-9.73-11.75-19.97-11.75-30.44c0-10.46,3.96-20.7,11.75-30.43
	c7.85-9.8,19.18-18.64,33.69-26.31c12.94-6.83,27.77-12.38,44.19-16.54V141.1z"></path></svg></g></g><defs><clipPath id="SvgjsClipPath1061"><rect width="1000" height="1000" x="0" y="0" rx="500" ry="500"></rect></clipPath></defs></svg>