<svg xmlns="http://www.w3.org/2000/svg" viewBox="0 0 256 256">
  <path
    d="M1.475 31.768c0 6.473 3.901 10.374 10.374 10.374 4.559 0 6.62-2.913 9.009-5.303 2.036-2.048 5.145-5.608 7.29-7.046v148.175c0 14.934-.39 26.478 11.228 38.168 11.715 11.788 22.54 11.715 37.668 11.715h148.663c-1.426 2.145-4.998 5.254-7.034 7.29-3.316 3.316-5.315 4.413-5.315 9.996 0 5.388 4.255 9.386 10.374 9.386 4.961 0 7.375-3.67 9.996-6.29 2.926-2.926 5.498-5.473 8.399-8.399 3.279-3.328 1.585-.707 5.961-5.9.938-1.121 1.134-1.073 2.036-2.401 2.499-3.657 3.865-7.473 4.23-11.313v-4.388c-.561-5.912-3.353-11.703-7.777-16.75l-12.593-12.093c-3.67-3.67-5.034-6.546-11.24-6.546-5.376 0-9.386 4.242-9.386 10.374 0 4.767 3.292 6.998 5.802 9.508 2.109 2.097 6.083 5.608 7.534 7.777l-156.087.012c-14.25.061-22.711-8.07-22.723-22.223l.012-157.087c7.192 4.815 9.399 13.337 18.273 13.337 5.376 0 9.386-4.242 9.386-10.374 0-4.95-3.67-7.375-6.29-9.996C57.782 10.288 52.333 1.645 37.034 1.645c-4.23 0-9.606 2.292-12.264 4.035L8.022 21.528c-2.682 2.67-6.546 5.206-6.546 10.24" />
  <path
    d="M67.657 98.95v62.72c0 12.02 19.492 13.178 19.773-.463l-.025-39.046c0-4.242-.159-12.349 7.412-12.349 7.107 0 7.436 7.229 7.412 11.849l-.025 39.046c.086 13.958 19.529 13.592 19.809.5l-.025-39.046c-.012-4.242-.17-12.349 7.4-12.349 7.107 0 7.436 7.229 7.412 11.849l-.025 39.046c.086 14.433 19.785 12.886 19.785.963v-45.934c0-4.096-1.244-7.156-2.39-9.96-3.389-8.351-13.617-15.726-22.308-15.726-6.607 0-10.788.22-16.506 3.743-1.256.78-2.158 1.463-3.255 2.194-6.961-4.669-15.018-7.57-23.625-5.352-5.583 1.426-2.926 1.719-6.486-.086-6.034-3.047-14.336.963-14.336 8.399m100.754-22.723c0 3.328-.207 5.522 2.816 8.545a10.08 10.08 0 0 0 16.47-3.584c.878-2.329-.122-4.023 1.841-5.608.451-.378 11.228-3.974-2.426 12.922-4.705 5.827-7.497 8.387-12.897 13.775-3.364 3.364-5.802 4.998-5.802 10.496 0 5.047 4.34 9.386 9.386 9.386h27.662c9.155 0 12.678-12.068 5.802-17.652-2.609-2.121-4.767-2.109-9.265-2.109 1.024-1.926 2.34-3.279 3.743-5.145 8.753-11.679 13.178-22.784 2.182-35.352-13.092-14.982-39.51-4.193-39.51 14.324" />
</svg>
