<svg xmlns="http://www.w3.org/2000/svg" viewBox="0 0 256 256">
  <path
    d="M127.915 6.705a67.3 67.3 0 0 1 14.787 1.67 68 68 0 0 1 7.717 2.304l1.499.561 1.475.61 1.463.634a64 64 0 0 1 5.644 2.889 69 69 0 0 1 2.694 1.646l1.317.866 1.292.902h.012l1.268.914 1.243.963a66 66 0 0 1 2.426 1.999 61 61 0 0 1 4.547 4.34l1.073 1.146 1.036 1.17a58 58 0 0 1 2.962 3.682 57 57 0 0 1 1.829 2.56l.866 1.317.829 1.341h.012l.792 1.365h.012a62 62 0 0 1 1.499 2.779l.707 1.426a64 64 0 0 1 1.317 2.889l.597 1.487h.012l.561 1.487.536 1.512.488 1.536h.012l.451 1.548.427 1.56.378 1.573a63 63 0 0 1 .658 3.194l.268 1.621.232 1.634.183 1.646a65 65 0 0 1 .244 3.328l.012-.012.061 1.682a69 69 0 0 1 0 3.377l-.061 1.682-.11 1.67a62 62 0 0 1-.329 3.304l-.232 1.634-.268 1.609-.305 1.609-.354 1.597-.378 1.573-.427 1.56-.451 1.548h-.012l-.488 1.524-.536 1.512-.561 1.499h-.012l-.597 1.475a64 64 0 0 1-1.317 2.901l-.707 1.426a65 65 0 0 1-1.499 2.779h-.012l-.792 1.353h-.012l-.829 1.341-.866 1.317a54 54 0 0 1-1.829 2.572 60 60 0 0 1-2.962 3.669 63 63 0 0 1-2.109 2.328 72 72 0 0 1-4.547 4.328l-1.195 1.024-1.231.975-1.243.963-1.268.926h-.012a59 59 0 0 1-2.609 1.768 64 64 0 0 1-2.694 1.634 62 62 0 0 1-5.644 2.889l-1.463.646-1.475.597-1.499.573a64.94 64.94 0 0 1-29.196 3.633 64.8 64.8 0 0 1-15.811-3.633h-.012a55 55 0 0 1-2.974-1.17h.012c-.5-.207-.975-.427-1.463-.646a72 72 0 0 1-4.267-2.109l-1.378-.78a58 58 0 0 1-2.694-1.634h-.012a66 66 0 0 1-2.609-1.768l-1.268-.926-1.256-.963a64 64 0 0 1-2.414-1.999h-.012a65 65 0 0 1-4.535-4.328l-1.073-1.158-1.048-1.17a73 73 0 0 1-2.95-3.669 57 57 0 0 1-1.829-2.572c-.293-.439-.585-.866-.866-1.317l-.841-1.341-.805-1.353a63 63 0 0 1-1.512-2.779l-.707-1.426-.67-1.438-.634-1.463-.61-1.475-.561-1.499-.536-1.512-.5-1.524-.451-1.548h-.012l-.414-1.56-.39-1.573-.341-1.597-.305-1.609-.268-1.609-.232-1.634-.183-1.646h-.012l-.134-1.658h-.012l-.098-1.67c-.037-.561-.049-1.122-.061-1.682-.024-.561-.024-1.122-.024-1.682 0-.573 0-1.134.024-1.694.012-.561.024-1.122.061-1.682l.098-1.658h.012l.134-1.658h.012l.183-1.646.232-1.634.268-1.621.305-1.597.341-1.597.39-1.573.414-1.56h.012l.451-1.548.5-1.536.536-1.512.561-1.487.61-1.487a70 70 0 0 1 1.304-2.889l.707-1.426.744-1.402.768-1.378.805-1.365.841-1.341.866-1.317.902-1.292c.293-.427.61-.853.926-1.268l.951-1.256a63 63 0 0 1 1.999-2.426l1.048-1.17 1.073-1.146a66 66 0 0 1 3.365-3.291l1.17-1.048h.012a59 59 0 0 1 3.669-2.962c.414-.305.841-.622 1.268-.914l1.292-.902 1.317-.866h.012c.439-.293.878-.561 1.329-.841l1.365-.805a55 55 0 0 1 4.206-2.219l1.438-.67 1.463-.634 1.475-.61 1.487-.561h.012a63.5 63.5 0 0 1 12.532-3.218 72 72 0 0 1 6.607-.67 68 68 0 0 1 3.365-.085M228.727 238.46a13.422 13.422 0 1 0 26.112-6.12v-.012l-.012-.024v-.061l-.012-.024v-.061l-.012-.012v-.049l-.012-.024v-.037l-.012-.037-.012-.024v-.024l-.012-.037v-.024l-.012-.024-.049-.183-.012-.012a122 122 0 0 0-.902-2.511 132 132 0 0 0-1.938-4.949l-1.036-2.438a133 133 0 0 0-3.377-7.131h-.012l-1.207-2.316h-.012c-.402-.768-.829-1.524-1.243-2.292h-.012l-1.292-2.255-1.341-2.231-1.378-2.206a130 130 0 0 0-4.376-6.412 137.7 137.7 0 0 0-15.128-17.457l-.012.012-1.853-1.768a132 132 0 0 0-9.74-8.265 138 138 0 0 0-4.108-3.035 137 137 0 0 0-6.363-4.267 135 135 0 0 0-4.389-2.645 133 133 0 0 0-11.374-5.851c-.78-.366-1.56-.707-2.341-1.048a124 124 0 0 0-7.156-2.865h-.012l-2.426-.866-2.45-.817c-.817-.256-1.634-.524-2.462-.768l-2.487-.731-2.499-.67a152 152 0 0 0-5.047-1.219 134 134 0 0 0-10.289-1.841h-.012a140 140 0 0 0-15.823-1.243 148 148 0 0 0-10.667.207 131 131 0 0 0-10.508 1.036 137 137 0 0 0-10.289 1.841 139 139 0 0 0-5.047 1.219h-.012l-2.499.67c-.829.244-1.658.475-2.475.731-.829.244-1.646.512-2.475.768l-2.438.817h-.012l-2.426.866c-.805.293-1.609.61-2.402.914a144 144 0 0 0-7.095 2.999 138 138 0 0 0-11.386 5.851 127 127 0 0 0-4.376 2.645 112 112 0 0 0-4.267 2.804h-.012c-.695.475-1.402.963-2.085 1.463h-.012a125 125 0 0 0-4.108 3.035h.012a126 126 0 0 0-3.986 3.194h-.012a134 134 0 0 0-5.742 5.071h-.012l-1.841 1.768h-.012a129 129 0 0 0-5.352 5.51 136 136 0 0 0-9.777 11.934l-1.499 2.109a131 131 0 0 0-4.254 6.51l-1.341 2.231-1.304 2.255-1.256 2.292a133 133 0 0 0-2.389 4.669 144 144 0 0 0-3.243 7.217l-1 2.462-.939 2.487h-.012l-.89 2.511-.012.012-.061.183v.049l-.012.037-.012.024v.024l-.012.037v.024l-.012.012v.024l-.012.049v.037l-.012.037v.061H.988v.061a13.434 13.434 0 0 0 12.898 17.14c6.595 0 12.069-4.754 13.202-11.02a43 43 0 0 1 1.78-6.729 108.5 108.5 0 0 1 99.048-64.354 108.5 108.5 0 0 1 99.048 64.354 43 43 0 0 1 1.768 6.729M151.637 40.399q1.902 1.426 3.621 3.072l.683.658.67.683c.439.463.866.926 1.28 1.414l.61.719c.402.488.792.987 1.182 1.499l.561.768c.366.524.719 1.048 1.061 1.585l.512.817a38 38 0 0 1 3.328 6.924 38 38 0 0 1 1.39 4.681v-.012l.219.963.183.975.158.987.134.987h.012l.11.987.085 1.012.061 1a41 41 0 0 1 0 4.084l-.061 1.012-.085 1-.11 1h-.012l-.134.987-.158.975-.183.975-.219.963a40 40 0 0 1-1.39 4.681 39.4 39.4 0 0 1-3.328 6.924l-.512.817q-.512.805-1.061 1.573l-.561.768c-.39.512-.78 1.012-1.182 1.499l-.61.731c-.414.475-.841.951-1.28 1.402l-.67.683-.683.67q-1.719 1.646-3.621 3.072h-.012l-.768.561-.78.536-.792.524-.817.512-.817.488h-.012l-.829.463-.853.451-.853.427-.878.402-.878.39-.902.366-.902.341-.914.329-.926.293-.939.28-.939.256-.963.232-.963.219-.963.183-.987.158-.987.134v.012l-1 .11-1 .085-1.012.061-1.012.049a34 34 0 0 1-2.048 0l-1.024-.049-1-.061-1.012-.085-.987-.11v-.012l-.987-.134-.987-.158-.975-.183-.963-.219-.951-.232-.939-.256-.939-.28-.926-.293-.914-.329-.902-.341h-.012l-.89-.366-.878-.39h-.012l-.866-.402-.866-.427-.841-.451-.841-.463-.817-.488-.817-.512-.792-.524-.792-.536-.768-.561a40 40 0 0 1-3.633-3.072l-.67-.67h-.012l-.658-.683a34 34 0 0 1-1.28-1.402l-.61-.731h-.012q-.603-.731-1.17-1.499l-.561-.768a50 50 0 0 1-1.073-1.573l-.5-.817a40 40 0 0 1-3.328-6.924h-.012a37 37 0 0 1-.89-2.779h-.012l-.488-1.902-.207-.963-.183-.975-.158-.975-.146-.987-.11-1-.085-1-.073-1.012a41 41 0 0 1 0-4.084l.073-1 .085-1.012.11-.987.146-.987.158-.987.183-.975.207-.963.488-1.902h.012c.256-.939.561-1.865.89-2.767h.012a39.5 39.5 0 0 1 3.328-6.924l.5-.817 1.073-1.585.561-.768q.567-.768 1.17-1.499h.012l.61-.719c.414-.488.841-.951 1.28-1.414l.658-.683h.012l.67-.658a40 40 0 0 1 3.633-3.072l.768-.561.792-.549.792-.524.817-.5.817-.488.841-.475.841-.439.866-.427.866-.414h.012l.878-.39.89-.366h.012l.902-.341.914-.317.926-.305.939-.28.939-.256.951-.232.963-.207.975-.183.987-.171.987-.134.987-.11 1.012-.098 1-.061 1.024-.037 1.024-.012 1.024.012 1.012.037 1.012.061 1 .098 1 .11.987.134.987.171.963.183.963.207.963.232.939.256.939.28.926.305.914.317.902.341.902.366.878.39.878.414.853.427.853.439.829.475h.012l.817.488.817.5.792.524.78.549.768.561z" />
</svg>
