<svg xmlns="http://www.w3.org/2000/svg" viewBox="0 0 256 256">
  <path
    d="M127.915 2.072a86.31 86.31 0 0 1 86.309 86.309c0 36.389-50.347 108.568-69.742 141.239l-13.58 22.882a3.17 3.17 0 0 1-2.804 1.597c-1.17 0-2.182-.585-2.792-1.597l-13.568-22.882C91.697 195.804 41.606 126.513 41.606 88.381a86.32 86.32 0 0 1 86.309-86.309m.195 211.554c18.298-29.903 63.829-98.414 63.829-125.245a64.024 64.024 0 1 0-128.049 0c0 28.404 45.458 94.732 64.219 125.245m-.195-163.328a38.875 38.875 0 1 1-.012 77.763 38.875 38.875 0 0 1 .012-77.763m0 22.296a16.579 16.579 0 1 0-.012 33.195 16.579 16.579 0 0 0 .012-33.195" />
</svg>
