<svg xmlns="http://www.w3.org/2000/svg" viewBox="0 0 256 240.217">
  <path
    d="M42.262 41.239H163.73c23.294 0 42.262 18.968 42.262 42.262v114.453c0 23.294-18.968 42.262-42.262 42.262H42.262C18.968 240.217 0 221.249 0 197.955V83.502C0 60.208 18.968 41.24 42.262 41.24m0 24.872H163.73c9.557 0 17.39 7.833 17.39 17.39v114.453c0 9.557-7.833 17.39-17.39 17.39H42.262a17.45 17.45 0 0 1-17.39-17.39V83.502c0-9.557 7.833-17.39 17.39-17.39" />
  <path
    d="M92.27 0h121.468C237.032 0 256 18.968 256 42.262v114.453c0 21.599-16.309 39.486-37.294 41.97v-25.311a17.45 17.45 0 0 0 12.422-16.659V42.262c0-9.557-7.833-17.39-17.39-17.39H92.27c-4.355 0-8.33 1.637-11.399 4.296H52.082C57.636 12.246 73.565 0 92.27 0" />
</svg>
