<svg xmlns="http://www.w3.org/2000/svg" viewBox="0 0 256 245.288">
  <path d="m228.18 117.552-43.438-12.42v126.246a13.072 13.072 0 0 1-26.081 0v-125.78l-34.34 11.768v114.012a13.91 13.91 0 0 1-27.851 0V113.981c0-10.029 6.179-18.629 15.649-21.859l6.024-2.08 48.747-16.425c3.509-.683 7.048-.528 10.619.497l61.757 17.636a22.88 22.88 0 0 1 16.735 22.231v117.397a13.91 13.91 0 0 1-27.82 0zM62.16 32.415 27.82 44.152v186.202a13.91 13.91 0 0 1-27.82 0V40.799C0 30.77 6.148 22.17 15.618 18.909L67.221 1.273C71.816-.311 76.349-.404 81.038.931l61.726 17.636a22.88 22.88 0 0 1 16.767 22.231v17.667l-27.82 8.818V44.338L88.273 31.949c-8.445-1.242-11.395-2.981-26.112.466"/>
</svg>
