<svg xmlns="http://www.w3.org/2000/svg" viewBox="0 0 256 213.982">
  <path d="M5.509 2.038a14.192 10.758 52.989 0 1 16.962 7.275l110.138 183.563a14.192 10.758 52.989 0 1-2.418 16.965 14.192 10.758 52.989 0 1-16.962-7.275L3.091 19.003A14.192 10.758 52.989 0 1 5.509 2.038m44.686 0a14.192 10.758 52.989 0 1 16.962 7.275l110.138 183.563a14.192 10.758 52.989 0 1-2.418 16.965 14.192 10.758 52.989 0 1-16.962-7.275L47.777 19.003a14.192 10.758 52.989 0 1 2.418-16.965m44.686 0a14.192 10.758 52.989 0 1 16.962 7.275l110.138 183.563a14.192 10.758 52.989 0 1-2.418 16.965 14.192 10.758 52.989 0 1-16.962-7.275L92.463 19.003a14.192 10.758 52.989 0 1 2.418-16.965m44.687 0a14.192 10.758 52.989 0 1 16.962 7.275l110.138 183.563a14.192 10.758 52.989 0 1-2.418 16.965 14.192 10.758 52.989 0 1-16.962-7.275L137.149 19.003a14.192 10.758 52.989 0 1 2.418-16.965"/>
</svg>
