<svg xmlns="http://www.w3.org/2000/svg" xml:space="preserve" fill-rule="evenodd" clip-rule="evenodd" image-rendering="optimizeQuality" shape-rendering="geometricPrecision" text-rendering="geometricPrecision" viewBox="0 0 15000 15000">
  <g fill-rule="nonzero">
    <path fill="#00adb5" d="m276.06 1299.2 7362.75 12617.99 369.98-216.41L646.03 1082.82zm1119.22 0 7362.75 12617.99 369.98-216.41L1765.26 1082.82zm1119.23 0 7362.75 12617.99 369.96-216.41L2884.47 1082.82zm1119.15 0 7362.76 12617.99 369.99-216.41L4003.65 1082.82zm1119.19 0 7362.75 12617.99 369.99-216.41L5122.83 1082.82zm1119.18 0 7362.76 12617.99 369.98-216.41L6241.98 1082.82zm1119.16 0 7362.75 12617.99 369.99-216.41L7361.17 1082.82z"/>
    <path fill="#4e438e" d="M1805.43 12546.48V5131.99L625.8 3110.36v10615.78h6194.44l-688.32-1179.66zm9856.84-9927.11v4576L12841.92 9217V1439.74H8303.77l688.34 1179.63z"/>
  </g>
</svg>
